<svg width="512" height="512" viewBox="0 0 799 799" version="1.1" xmlns="http://www.w3.org/2000/svg" xmlns:xlink="http://www.w3.org/1999/xlink">
  
  <defs>
    <path id="B" d="M164 630h20v2l-5 1-1 17h18v-17l-6-1v-2h20v2l-5 1v37l5 1v2h-20v-2l5-2 1-16h-18l1 17 5 1v2h-20v-2l5-2v-36l-5-1v-2z"/>
    <path id="C" d="M238 574c4.415 2.249 7.232 4.918 10 9 1.061 5.78 1.206 12.08-2.125 17.125-3.587 4.049-7.478 5.984-12.875 6.313-4.282-.196-6.762-1.567-10-4.437-3.619-4.762-4.709-8.514-4.453-14.5.957-5.283 3.757-8.992 7.703-12.5 3.992-1.452 7.556-1.667 11.75-1z"/>
    <path id="D" d="M283 642c3.704 2.027 5.654 3.48 8 7v6h-20c1.974 7.936 1.974 7.936 7 13 3.595.248 3.595.248 7-1 1.771-2.479 1.771-2.479 3-5h3c-.504 4.409-1.911 6.826-5 10-3.97 2.253-7.497 2.621-12 2-3.816-2.236-6.391-4.835-8.437-8.75-1.042-6.019-1.641-11.131 1.188-16.687 4.829-5.499 8.852-7.189 16.25-6.562z"/>
    <path id="E" d="M230 577c3.25 0 3.25 0 7 1 3.993 4.407 4.585 9.929 4.32 15.66-.457 3.34-1.307 5.632-3.32 8.34-2.437 1.125-2.437 1.125-5 1-2.924-2.255-4.653-4.591-6-8-.301-3.312-.301-3.312-.312-7l-.051-3.687c.38-3.469 1.001-4.819 3.363-7.312z"/>
    <path id="F" d="M294 605l7.375.375 2.078.133c3.042.213 5.641.523 8.547 1.492-.361 2.615-.761 3.773-2.703 5.613-2.798 1.689-4.547 1.789-7.797 1.762l-2.844.023c-3.019-.453-4.403-1.39-6.656-3.398.875-4.875.875-4.875 2-6z"/>
    <path id="G" d="M299.438 576.5c2.563.5 2.563.5 4.375 2.563 1.453 3.594 1.607 6.09 1.188 9.938-1.5 2.438-1.5 2.438-3 4-2.375-.187-2.375-.187-5-1-2.37-3.837-2.327-7.583-2-12 2-3 2-3 4.438-3.5z"/>
    <path id="H" d="M30 323l2 5c-4.236 3.873-4.236 3.873-7.625 4.438-2.801-.516-3.745-1.122-5.375-3.437 0-3 0-3 1-4.687 3.214-2.109 6.215-1.499 10-1.312z"/>
    <path id="I" d="M275 645c5.568.568 5.568.568 7 2v5h-11c2-5 2-5 4-7z"/>
    <path id="J" d="M22 224h1v7l-4-2c1.875-3.875 1.875-3.875 3-5z"/>
  </defs>

  <style>
    .B{fill:#030303} .C{fill:#060606} .D{fill:#020202} .E{fill:#0f0f0f}
    .F{fill:#090909} .G{fill:#050505} .H{fill:#0b0b0b} .I{fill:#101010}
    .J{fill:#f4f4f4} .K{fill:#0a0a0a} .L{fill:#0d0d0d} .M{fill:#0e0e0e}
    .N{fill:#080808} .O{fill:#ededed} .P{fill:#f3f3f3} .Q{fill:#0c0c0c}
    .R{fill:#efefef}
  </style>

  <g fill="#fefefe">
    <path d="M0 0h799v799H0V0z"/>
    <path d="M0 0h416v381H0V0zm421 386h378v413H421V386zm0-386h378v381H421V0z"/>
  </g>

  <path d="M532 550h165v113H532V550z" fill="#eb1b23"/>
  <path d="M115 130h200v91H115v-91z" fill="#21b04b"/>
  <path d="M416 0h5v381h378v5H421v413h-5V386H0v-5h416V0z"/>
  
  <path d="M158 386h76v2h-18l.007 4.435.045 41.278.024 21.224.019 20.463.011 7.827.008 10.92.011 3.304-.004 2.987.003 2.612C216 505 216 505 215 506l-8.375.133-2.544.003a1957.26 1957.26 0 0 1-5.336-.005 2036.09 2036.09 0 0 0-8.197.006l-5.172-.004-2.494.006c-5.766-.024-5.766-.024-6.881-1.139a71.25 71.25 0 0 1-.12-4.562l-.004-2.987.011-3.304v-3.459l.016-11.379.004-7.865.021-18.625.022-21.199L176 388h-18v-2zm37-120c1.85.583 1.85.583 4 2 1.287 2.904 1.287 2.904 2.407 6.68l.633 2.087 2.031 6.894 1.458 4.866 3.825 12.918 3.787 12.737 4.472 15.045 7.359 24.492.715 2.334 3.362 10.894 1.181 3.848 1.04 3.356C232 377 232 377 232 381h-72c.735-5.147 1.667-9.713 3.19-14.618l.671-2.207 2.206-7.191 1.552-5.09 4.109-13.423 6.485-21.212 2.365-7.725 6.914-23.033.571-1.955 2.551-8.846.879-3.032.744-2.61C193 268 193 268 195 266zm226-112l2 1v11l3.106-.007 28.916-.045 14.868-.024 14.336-.019 5.482-.011 7.651-.008 2.313-.011c5.214.01 5.214.01 6.328 1.124l.133 6.188.004 3.805-.006 1.991.006 6.024-.004 3.805-.003 3.52C506 195 506 195 505 196l-7.641.114h-2.424l-7.97-.016-5.511-.004-14.535-.025-14.82-.02L423 196v11l-2 1v-54zm-5 1v52l-59.062-17.062-2.975-.876-8.372-2.472-2.549-.75c-5.811-1.725-5.811-1.725-8.041-2.84.31-1.91.31-1.91 1-4 2.692-1.277 5.157-2.143 8-3l3.46-1.068 12.817-3.819 4.734-1.4 9.872-2.912 12.678-3.743 9.751-2.88 4.678-1.382 6.506-1.917 3.742-1.103C415 155 415 155 416 155z" fill="#ffc90e"/>
  <path d="M756 406c4.583 3.274 6.771 7.923 9.305 12.824 1.238 2.32 2.506 4.53 3.891 6.758l1.126 1.846 3.238 5.213c1.988 4.633 1.249 7.937-.309 12.609-1.767 2.474-3.518 3.404-6.25 4.75-4.563.541-9.129.473-13.719.446-2.208-.009-4.414.02-6.622.052-1.416.002-2.832.001-4.248-.002l-3.871.006c-4.161-.59-6.296-1.874-9.539-4.502-2.152-3.228-2.656-5.36-2.574-9.219 1.147-5.557 4.5-10.249 7.484-14.997 2.253-3.686 4.222-7.547 6.254-11.358 4.163-5.501 9.58-6.481 15.836-4.426z" fill="#f1d438"/>
  <path d="M316 576v3l-4 1 .25 3.625c0 4.479-1.303 6.937-4.25 10.375-3.006 1.885-5.23 2.229-8.75 2.125l-2.422-.055L295 596l-1 2 3.289-.176 4.336-.137 2.16-.127c3.981-.091 6.517.238 9.727 2.709C316 603 316 603 316.543 605.063c-.929 5.061-2.339 7.667-6.543 10.938-4.954 3.265-9.244 3.609-15 3-3.622-.939-5.881-1.921-9-4 .438-4.557.85-7.577 4-11l-2-2c.356-3.38 1.357-6.043 3-9l-1.5-1.5c-2.073-3.455-2.195-6.618-1.5-10.5 1.798-3.062 3.238-4.567 6.313-6.312 7.242-1.853 14.486-.012 21.688 1.313zm386-429v3l-4 1 .25 3.625c0 4.479-1.303 6.937-4.25 10.375-3.006 1.885-5.23 2.229-8.75 2.125l-2.422-.055L681 167l-1 2 3.289-.176 4.336-.137 2.16-.127c3.981-.091 6.517.238 9.727 2.709C702 174 702 174 702.543 176.063c-.929 5.061-2.339 7.667-6.543 10.938-4.954 3.265-9.244 3.609-15 3-3.622-.939-5.881-1.921-9-4 .438-4.557.85-7.577 4-11l-2-2c.356-3.38 1.357-6.043 3-9l-1.5-1.5c-2.073-3.455-2.195-6.618-1.5-10.5 1.798-3.062 3.238-4.567 6.313-6.312 7.242-1.853 14.486-.012 21.688 1.313z" class="F"/>
  <path d="M276 150l1 40h4v3l-4.25 1.563-2.391.879c-2.581.611-3.86.28-6.359-.441l-2 1c-8.843.58-8.843.58-13-3-3.622-4.797-4.657-8.499-4.383-14.504.857-5.587 2.995-9.263 7.195-12.996 4.668-2.197 8.336-2.117 13.188-.5v-10h-5v-2l4.313-1.5 2.426-.844C273 150 273 150 276 150z" fill="#000401"/>
  
  <use href="#B" class="B"/>
  <use href="#B" x="385" y="-44" fill="#030000"/>
  
  <path d="M148 152h20v2l-5 1-1 17h18l-1-17-5-1v-2h20v2l-5 1v37l5 1v2h-20v-2l5-2 1-16h-18l1 16 5 2v2h-20v-2l5-1v-37l-5-1v-2z" fill="#000200"/>
  <path d="M262 574l1 4 1.5-2c3.043-2.434 4.731-2.504 8.5-2.629 3.399 1.069 4.256 2.519 6 5.629.626 3.933.697 7.835.75 11.813l.09 3.256L280 602l4 1v3h-33v-2l3-1 1-24h-4l1-3c3.604-1.522 6.052-2 10-2zm386-429l1 4 1.5-2c3.043-2.434 4.731-2.504 8.5-2.629 3.399 1.069 4.256 2.519 6 5.629.626 3.933.697 7.835.75 11.813l.09 3.256L666 173l4 1v3h-33v-2l3-1 1-24h-4l1-3c3.604-1.522 6.052-2 10-2z" class="C"/>
  <path d="M216 164c4.822 2.365 7.703 5.141 10 10 .778 5.324.7 9.573-1.687 14.438-3.95 4.377-7.102 7.378-13.062 7.875-4.434-.072-6.855-1.38-10.25-4.312-3.593-3.782-4.328-6.866-4.562-11.937.198-5.696 1.425-9.142 5.563-13.062 4.195-3.613 8.689-3.835 14-3z" fill="#010803"/>
  
  <g class="K">
    <use href="#C"/>
    <use href="#C" x="386" y="-429"/>
    <path d="M166 563v-2h4v16h-4l-.812-3.812c-.594-2.289-1.122-4.075-2.312-6.125-3.107-1.76-6.328-2.173-9.875-2.062-2.213.879-2.213.879-3 3-.556 2.947-.556 2.947 1 6 3.123 2.375 6.559 4.13 10 6l5 3.188 2.188 1.418C170 586 170 586 172 589c.431 5.347.468 8.665-3 13-4.573 4.001-8.629 4.211-14.48 4.168-3.078-.205-5.683-.974-8.52-2.168v2h-3v-16h3l.551 1.645.762 2.168.738 2.145c1.38 2.97 3.036 4.586 5.949 6.043 3.262.284 5.396.286 8.375-1.125 1.83-1.846 1.83-1.846 2.438-4.687-1.132-4.44-3.418-5.383-7.227-7.684L155 587c-10.506-6.554-10.506-6.554-13-11-.551-3.367-.758-5.687.988-8.711 6.142-7.796 14.253-7.882 23.012-4.289zm386-429v-2h4v16h-4l-.812-3.812c-.594-2.289-1.122-4.075-2.312-6.125-3.107-1.76-6.328-2.173-9.875-2.062-2.213.879-2.213.879-3 3-.556 2.947-.556 2.947 1 6 3.123 2.375 6.559 4.13 10 6l5 3.188 2.188 1.418C556 157 556 157 558 160c.431 5.347.468 8.665-3 13-4.573 4.001-8.629 4.211-14.48 4.168-3.078-.205-5.683-.974-8.52-2.168v2h-3v-16h3l.551 1.645.762 2.168.738 2.145c1.38 2.97 3.036 4.586 5.949 6.043 3.262.284 5.396.286 8.375-1.125 1.83-1.846 1.83-1.846 2.438-4.687-1.132-4.44-3.418-5.383-7.227-7.684L541 158c-10.506-6.554-10.506-6.554-13-11-.551-3.367-.758-5.687.988-8.711 6.142-7.796 14.253-7.882 23.012-4.289z"/>
  </g>
  
  <path d="M242 628l1 25 7-8h-2v-2h14v2l-2.5.563c-4.69 1.926-7.855 4.978-11.5 8.438 1.547 3.464 3.614 6.186 6 9.125l2.125 2.633c2.576 3.081 3.948 4.457 7.875 5.242v2h-16v-2h2l-7-12-1 12h4v2h-16v-2h4v-37l-4-2c1-2 1-2 3.75-3.125C237 628 237 628 242 628z" class="N"/>
  <path d="M627 584l1 25 7-8h-2v-2h14v2l-2.5.563c-4.69 1.926-7.855 4.978-11.5 8.438 1.547 3.464 3.614 6.186 6 9.125l2.125 2.633c2.576 3.081 3.948 4.457 7.875 5.242v2h-16v-2h2l-7-12-1 12h4v2h-16v-2h4v-37l-4-2c1-2 1-2 3.75-3.125C622 584 622 584 627 584z" fill="#070001"/>
  <path d="M601 202l1-2h4l1 15h-3c-4-6.75-4-6.75-4-9-4.548-2.347-8.99-2.729-14-2-4.396 2.485-6.085 5.408-8 10-.311 2.731-.478 5.156-.437 7.875l.021 2.139c.178 5.768 1.043 9.336 4.417 13.986 3.454 3.07 6.606 3.487 11.082 3.277 3.776-.546 5.966-2.094 8.332-5.035 1.242-1.714 2.419-3.476 3.586-5.242l2 1c-.49 4.243-2.967 7.18-6 10-5.713 3.428-11.426 4.073-18 3-5.795-2.096-9.986-5.157-13.125-10.5-2.902-6.861-3.58-14.99-.918-22.031 2.336-3.975 5.177-6.923 9.043-9.469l2.625-1.75c6.647-2.462 13.87-2.063 20.375.75z" class="H"/>
  <path d="M756 406c4.583 3.274 6.771 7.923 9.305 12.824 1.238 2.32 2.506 4.53 3.891 6.758l1.126 1.846 3.238 5.213c1.988 4.633 1.249 7.937-.309 12.609-1.767 2.474-3.518 3.404-6.25 4.75-4.563.541-9.129.473-13.719.446-2.208-.009-4.414.02-6.622.052-1.416.002-2.832.001-4.248-.002l-3.871.006c-4.161-.59-6.296-1.874-9.539-4.502-2.152-3.228-2.656-5.36-2.574-9.219 1.147-5.557 4.5-10.249 7.484-14.997 2.253-3.686 4.222-7.547 6.254-11.358 4.163-5.501 9.58-6.481 15.836-4.426zm-13.969 8.957c-1.257 2.108-1.257 2.108-1.031 5.043h-2l-.953 1.941-1.297 2.621-1.367 2.766c-1.162 2.246-2.408 4.351-3.758 6.484-1.828 2.99-1.828 2.99-1.625 5.875 1.266 2.929 2.491 4.321 5 6.313 3.316.599 3.316.599 7.031.496l2.039.004 4.256-.034 6.498-.008 4.145-.025 3.795-.03c3.427-.428 4.818-.994 7.236-3.404 1.33-3.192 1.095-4.715 0-8-2.745-5.786-5.919-11.388-9-17h-2l-.312-2.25c-.781-3.126-1.246-4.623-3.687-6.75-6.906-1.358-9.09.294-12.969 5.957z" fill="#000101"/>
  
  <g class="F">
    <path d="M609 214h12l.184 4.961.254 6.414.119 3.273.127 3.125.111 2.888c.063 2.36.063 2.36 1.205 4.338 3.818-.275 3.818-.275 7-2l.098-4.473-.01-2.725-.025-2.865-.014-2.877L630 217l-3-1v-2h11l1 25h4v3l-4.312 1.5-2.426.844C634 245 634 245 631 245l-1-4-1.375 1.438c-2.239 2.153-3.376 2.535-6.5 2.875C619 245 619 245 616.688 243.188c-2.533-3.283-2.833-6.053-3.004-10.074l-.127-2.842-.119-2.959-.131-2.994L613 217l-4-1v-2z"/>
    <use href="#D"/>
  </g>
  
  <use href="#D" x="385" y="-44" fill="#080101"/>
  <path d="M37 576h1v29l-2-1a142.02 142.02 0 0 0-5.625-.562l-3.039-.254L25 603l-1 2-1-8-.062-2.937C23 591 23 591 24 588l-1-7 1-2c3.104-.397 6.188-.509 9.313-.656L36 578l1-2z" fill="#f2f2f2"/>
  <path d="M242 150l1 42 3 1v2h-16v-2l3-1c1.533-3.066 1.121-6.271 1.098-9.633l-.004-2.278-.031-7.214-.014-4.887L234 156l-4-1v-2c4.679-2.202 6.625-3 12-3z" fill="#010703"/>
  
  <path d="M185 566h3v9h6v3h-6l1 22 6-1c-1.454 4.605-1.454 4.605-3.812 6.313-2.6.817-4.478 1.035-7.187.688-1.634-1.159-1.634-1.159-3-3-.341-2.635-.341-2.635-.293-5.762l.029-3.389.076-3.537.041-3.572L181 578h-5v-2l4.477-3.625c1.753-1.448 1.753-1.448 3.211-4.187L185 566zm386-429h3v9h6v3h-6l1 22 6-1c-1.454 4.605-1.454 4.605-3.812 6.313-2.6.817-4.478 1.035-7.187.688-1.634-1.159-1.634-1.159-3-3-.341-2.635-.341-2.635-.293-5.762l.029-3.389.076-3.537.041-3.572L567 149h-5v-2l4.477-3.625c1.753-1.448 1.753-1.448 3.211-4.187L571 137z" class="F"/>
  <path d="M652 205h3v9h6v3h-6l1 22 6-1c-.869 2.752-1.447 4.566-3.75 6.375-3.082.856-5.192.489-8.25-.375-2.266-3.399-2.237-4.563-2.195-8.543l.02-3.252.051-3.393.027-3.428L648 217h-5v-2l4.477-3.625c1.753-1.448 1.753-1.448 3.211-4.187L652 205z" class="B"/>
  <path d="M207 574l1 2 2-2 7 1c.625 1.875.625 1.875 1 4l-2 2-7-1c-1.228 1.006-1.228 1.006-1.114 3.041l.016 2.65.01 2.861.025 3.01.014 3.021L208 602l4 1v2h-17v-2l3-1c1.2-2.401 1.115-3.894 1.098-6.57l-.01-2.715-.025-2.84-.014-2.863L199 580l-4-1 1-3c3.759-1.623 6.921-2.24 11-2zm386-429l1 2 2-2 7 1c.625 1.875.625 1.875 1 4l-2 2-7-1c-1.228 1.006-1.228 1.006-1.114 3.041l.016 2.65.01 2.861.025 3.01.014 3.021L594 173l4 1v2h-17v-2l3-1c1.2-2.401 1.115-3.894 1.098-6.57l-.01-2.715-.025-2.84-.014-2.863L585 151l-4-1 1-3c3.759-1.623 6.921-2.24 11-2z" class="K"/>
  <path d="M550 13l8 2-3 2-.5 2.5-.5 2.5c-3.644 2.429-5.712 2.162-10 2v2l2.047-.07 2.703-.055 2.672-.07c2.692.204 4.277.83 6.578 2.195-.235 3.528-.369 5.408-3 7.875-4.005 1.502-7.764 1.736-12 1.125l-3-2 .375-5.375.211-3.023C541 24 541 24 543 22l-3-2c.313-2.375.313-2.375 1-5 3.566-2.377 4.792-2.318 9-2z" fill="#181818"/>
  
  <g fill="#f5f5f5">
    <use href="#E"/>
    <use href="#E" x="386" y="-429"/>
  </g>
  
  <path d="M213 167c3.11 2.419 4.325 4.182 5 8l.25 7 .078 3.688c-.348 3.509-.833 4.877-3.328 7.313-2.437.563-2.437.563-5 0-4.693-4.824-5.201-9.027-5.25-15.5l-.062-2.051c-.039-4.949-.039-4.949 1.676-7.391 2.401-1.553 3.835-1.537 6.637-1.059z" fill="#21ac4a"/>
  <path d="M37 476h1v20l-1-3-12 1 1 5h11l1-2v8l-2-1a83.01 83.01 0 0 0-5-.125l-2.687-.008c-2.339-.018-2.339-.018-4.312 1.133-1.73-12.541-1.73-12.541 0-16-.136-1.923-.136-1.923-.5-4-.611-3.778-.611-3.778.5-6h13v-3z" fill="#242424"/>
  <path d="M261 167c2.875.313 2.875.313 6 1 2.856 4.284 2.33 8.026 2.313 13.063l.049 2.799.002 2.674.009 2.449L269 191c-3 2-3 2-5.437 2-2.782-1.086-4.289-2.206-5.832-4.789-1.7-5.146-1.574-10.909-.73-16.211 2.031-2.934 2.031-2.934 4-5z" fill="#20aa49"/>
  <path d="M497 5h12l-3 1v10h11V6l-4-1h12l-4 1v22l4 1h-12l4-1V18h-11v10l3 1h-12l4-1V6l-4-1z" class="G"/>
  <path d="M15 731l2 2c2 .309 2 .309 4.281.266l2.551.008 2.668-.023 2.668.023 2.551-.008 2.342-.007c2.176-.091 2.176-.091 3.939-2.259v11l-2-2c-2.203-.46-2.203-.46-4.625-.625L27 739v11h9l2-4v12l-1-4H16l-1 4v-12l2 4h9v-11l-4.375.375-2.461.211c-2.367.243-2.367.243-4.164 2.414v-11z" class="K"/>
  <path d="M566 4l1 13 1-4c6.875.875 6.875.875 8 2a153.02 153.02 0 0 1 .063 6.563l-.027 3.629L576 28l3 1h-20l3-1-.437-10.375-.119-2.984-.127-2.852-.111-2.634C561.126 6.952 561.126 6.952 560 5c3-1 3-1 6-1z" class="O"/>
  <path d="M225 6v25l3 1h-10l2-2c.277-2.035.277-2.035.195-4.352l-.02-2.578-.051-2.695-.027-2.719L220 11h-4l-1-2h-2l-1 7h3v2h-3l.375 5.875.211 3.305c.147 2.951.147 2.951 2.414 4.82h-11l3-2c.585-2.886.585-2.886.688-6.125l.199-3.32L208 18h-4v-2h4l.25-3.312C210.103 3.578 216.436 6 225 6zM37 680h1v19l-1-2H17l-1 2-1-6h9l-.562-3.875c-.562-3.875-.562-3.875.563-6.125 3.104-.397 6.188-.509 9.313-.656L36 682l1-2z" class="L"/>
  <path d="M224 642l1 28 3 1v2h-15v-2l3-1 1-23h-5v-2l3.75-1.5 2.109-.844C220 642 220 642 224 642z" class="D"/>
  <path d="M609 598l1 28 3 1v2h-15v-2l3-1 1-23h-5v-2l3.75-1.5 2.109-.844C605 598 605 598 609 598z" fill="#020000"/>
  <path d="M646 4v24l3 1h-10l3-1-1-19h-3l-1-2c-2.025-.652-2.025-.652-4-1v7h4v2h-4v13l4 1h-12l4-1V15h-4v-2h4l.25-3.375L630 6c4-2 4-2 16-2z" class="M"/>
  <path d="M188 16v2l1.688-1c2.665-1.152 4.436-1.303 7.313-1 3.158 3.158 2.449 6.937 2.656 11.25.076 2.891.076 2.891 2.344 4.75h-21l2-2c.464-2.892.464-2.892.625-6.125l.227-3.32L184 18l-3-1c2.491-.687 4.379-1 7-1z" class="O"/>
  <path d="M627 214h11l1 25h4v3l-4.312 1.5-2.426.844C634 245 634 245 631 245c-.922-6.212-1.122-12.226-1.062-18.5l.014-2.781L630 217l-3-1v-2z" fill="#010101"/>
  <path d="M289.375 16.875C291 18 291 18 292 20c.438 3.313.438 3.313 0 7-2.925 3.273-4.743 4.824-9.125 5.438-2.727-.415-4.541-1.001-6.875-2.437v-2h-2c-.516-5.156-.516-5.156 0-8 4.55-4.439 9.402-5.326 15.375-3.125z" class="F"/>
  <path d="M34 558c2.5 1.625 2.5 1.625 4 4 .25 3.25.25 3.25 0 6l5 1v4H32l-1 3-1-2c-2.527-.656-2.527-.656-5-1l-1 3c-1.703-13.682-1.703-13.682 0-16.875 3.221-1.812 6.455-1.76 10-1.125z" fill="#1e1e1e"/>
  <path d="M268.688 579.25C271 580 271 580 272 581l.098 4.691-.01 2.861-.025 3.01-.014 3.021L272 602c-3.371 1.498-5.204 2-9 2-1.824-3.649-1.27-7.92-1.312-11.937l-.088-2.787-.025-2.678-.044-2.453c.47-2.145.47-2.145 2.329-3.948C266 579 266 579 268.688 579.25zm386-429C657 151 657 151 658 152l.098 4.691-.01 2.861-.025 3.01-.014 3.021L658 173c-3.371 1.498-5.204 2-9 2-1.824-3.649-1.27-7.92-1.312-11.937l-.088-2.787-.025-2.678-.044-2.453c.47-2.145.47-2.145 2.329-3.948C652 150 652 150 654.688 150.25z" fill="#f2f2f2"/>
  <path d="M300.25 16.5c3.445.626 6.324.105 9.75-.5 1.726 3.453 1.349 7.437 1.523 11.25L312 30l3 2h-20l1-2c.229-2.037.41-4.08.563-6.125l.254-3.32L297 18l-2-1c3-1 3-1 5.25-.5z" fill="#ececec"/>
  <path d="M706 13v2l4 1c.773 8.04.773 8.04-2.062 11.563-3.71 1.815-5.854 2.094-9.937 1.438-3.381-2.446-4.769-3.893-5.625-8 1.64-7.872 6.688-8.588 13.625-8z" class="H"/>
  <path d="M120 17l3 2c.328 2.094.328 2.094.25 4.5l-.047 2.406C123 28 123 28 122 30c-3.734 1.92-6.831 2.608-11 2-3.363-2.486-4.801-3.914-5.562-8.062.681-3.555 1.763-4.715 4.563-6.937 3.196-1.598 6.614-.771 10 0z" fill="#121212"/>
  <path d="M37 623h1v19l-1-2H25l-1 2c-.952-5.355-1.047-9.647 0-15 1-1 1-1 3.723-1.098l3.34.035 3.348.027L37 626v-3z" fill="#040404"/>
  <path d="M32 190h1v9l-1-3-5.437.375-3.059.211L21 197l-1 2 1 2c2.586.468 2.586.468 5.563.625l3.066.227L32 202l1-2v9l-1-3-11 1v4l11 1 1-2v8l-1-2-5.375.438-3.023.246c-2.581.166-2.581.166-4.602 1.316-.697-4.337-1.123-8.077-.5-12.437L19 202l-1-1c.176-2.691.618-5.329 1-8h13v-3z" fill="#1a1a1a"/>
  <path d="M32 59h1v18l-1-3-5.375.375-3.023.211c-2.757.178-2.757.178-4.602 2.414-1.302-10.674-1.302-10.674-1-14 2-2 2-2 4.82-2.195l3.305.07 3.32.055L32 61v-2z" fill="#e0e0e0"/>
  <path d="M33 527c3.231 2.183 3.908 3.661 4.938 7.438.063 3.563.063 3.563-.812 6.5-2.912 2.826-5.036 2.622-8.969 2.629C26 543 26 543 24.211 541.285c-1.474-2.782-1.448-4.304-1.086-7.41l.258-2.633c1.335-4.85 5.328-4.767 9.617-4.242z" fill="#171717"/>
  <path d="M32 236h1v19l-1-3H20l-1 3c-.826-5.606-1.068-10.423 0-16h13v-3z" class="P"/>
  <path d="M27.898 319.629C30 320 30 320 32.125 321.438c1.328 3.889.89 7.608-.125 11.563-2 2-2 5.875 2.438-3.339-.091-3.948-.287-6.625-2.562-1.747-3.348-2.055-5.151-1.5-8.875 1.889-4.786 5.272-4.62 9.898-4.371zm0-176C30 144 30 144 32.125 145.438c1.328 3.889.89 7.608-.125 11.563-2 2-2 2-5.875 2.438-3.339-.091-3.948-.287-6.625-2.562-1.747-3.348-2.055-5.151-1.5-8.875 1.889-4.786 5.272-4.62 9.898-4.371z" fill="#161616"/>
  <path d="M32 94h1v28l-1-2H20l-1 2-1-6 2-2 1 1a123.14 123.14 0 0 0 5.563.563l3.066.254L32 116v-6l-5.875.375-3.305.211c-2.951.147-2.951.147-4.82 2.414l1-9 2 1a142.02 142.02 0 0 0 5.625.563l3.039.254L32 106v-6l-5.875.375-3.305.211c-2.951.147-2.951.147-4.82 2.414l1-6h13v-3z" class="L"/>
  <path d="M24 701h2v2l2.375-.187L31 703c2.29 3.435 2.178 4.985 2 9h1l2-11h7l-1 3h-3l-1 10 5-1v5h-3l-1-2-2.312.125C34 716 34 716 31 714v2l-7-1c-1.418-2.836-.863-4.991-.562-8.125l.309-3.32L24 701zm-9-58l2 3c3.627.353 7.153.436 10.791.439 5.764.144 5.764.144 8.182 2.408 2.268 4.752 2.994 9.4 1.215 14.465C36 665 36 665 33 667c-3.438.317-6.835.463-10.283.566-4.321.024-4.321.024-7.717 2.434v-11l2 2a98.49 98.49 0 0 0 8 .188l2.234-.002c4.014.042 4.014.042 7.766-1.186v-8c-3.657-2.306-6.864-2.299-11.125-2.312l-3.758-.051L17 650l-2 3v-10z" class="I"/>
  <path d="M126 16h8l.375 2.813c.44 3.327.44 3.327 2.625 6.188l3-7-3-1v-1h9l-2 1 2 8h2l1-9h6l-1 2h-2l-.586 2.047-.789 2.703-.773 2.672c-.773 2.339-1.688 4.413-2.852 6.578h-2l-2-9h-3l-3 9c-4.208-2.104-4.583-2.408-6.25-6.437l-1.016-2.371C129 21 129 21 129 18l-3-1v-1z" class="E"/>
  <path d="M10 255l2 3c2.684.333 5.184.512 7.875.563 9.155.221 9.155.221 12.125 2.438.956 2.868 1.227 4.942 1.313 7.938l.113 2.59C33 274 33 274 31.52 276.281c-3.635 2.479-6.838 2.278-11.145 2.281A89.3 89.3 0 0 0 12 279l-2 3v-12l1 4h19c1.351-6.686 1.351-6.686 0-12l-19-1-1 3v-9z" class="Q"/>
  <path d="M663 13c1.502 3.003 1.093 5.791 1.063 9.125l-.027 3.883L664 29l-1.773-.531c-3.184-.67-6.032.058-9.227.531l-2-1c-.25-2.312-.25-2.312 0-5 2.815-2.923 6.169-3.868 10-5l-1-2c-2.025-.652-2.025-.652-4-1l-1 4h-3c.375-2.437.375-2.437 1-5 3.215-1.607 6.436-1.057 10-1z" class="G"/>
  <path d="M79 7h13c-3 2-3 2-5 2v21l5.75-.25 3.234-.141c3.54-.715 4.754-1.865 7.016-4.609-.875 4.75-.875 4.75-2 7H79l3-2c.465-2.189.465-2.189.398-4.719l.012-2.824-.035-2.957.035-2.957-.012-2.824-.01-2.596L82 9l-3-2z" fill="#040404"/>
  <path d="M26.563 173.188l2.379.168C31 174 31 174 32.27 175.879c.854 2.479.875 4.517.73 7.121l7 1 1-3v9l-2-2c-1.902-.309-1.902-.309-4.062-.266l-2.414-.008-2.523.023-2.523-.023-2.414.008-2.215.007c-2.095.104-2.095.104-3.848 2.259l-1-6 2-2 1 1 4.563.063 2.504-.027L30 183c.591-1.946.591-1.946 1-4-1.215-1.435-1.215-1.435-4.812-1.25-3.627.026-5.548.61-8.187 3.25l1-7c2.967-.989 4.511-1.079 7.563-.812z" class="B"/>
  <path d="M24 593h13c1.262 2.525 1.099 4.312 1.063 7.125l-.027 2.758L38 605l-2-1a142.02 142.02 0 0 0-5.625-.562l-3.039-.254L25 603l-1 2c-1.391-7.826-1.391-7.826 0-12z" class="R"/>
  
  <g class="J">
    <use href="#F"/>
    <use href="#F" x="386" y="-429"/>
  </g>
  
  <path d="M37 440h1v18l-2-1a142.02 142.02 0 0 0-5.625-.562l-3.039-.254L25 456l-1 2-1-6c3.015-1.005 5.042-1.103 8.188-1.062l2.73.027L36 451v-4H24l-1 2c-.187-2.375-.187-2.375 0-5 3.17-2.113 4.442-2.31 8.125-2.562 3.244.018 3.244.018 5.875-1.437z" fill="#131313"/>
  
  <g fill="#eee">
    <use href="#G"/>
    <use href="#G" x="386" y="-429"/>
  </g>
  
  <path d="M27 338l6 1v20l-2-3c-1.993-.463-1.993-.463-4.281-.398l-2.551-.012-2.668.035-2.668-.035-2.551.012-2.342.01c-2.346.232-2.346.232-3.939 3.388v-11l1 3h21v-9h-2v-2l-3-1v-1z" class="B"/>
  <path d="M167 7h13l-3 2c-.465 2.189-.465 2.189-.398 4.719l-.012 2.824.035 2.957-.035 2.957.012 2.824.01 2.596L177 30l3 2h-13l4-2 1-21-5-1V7z" class="D"/>
  <path d="M23 507l9.438 4.438 2.721 1.275 2.588 1.221 2.396 1.127C42 516 42 516 43 517v7h-1l-1-5c-3.287-.8-4.71-1.097-8 0-1.225 3.008-1.225 3.008-2 6l-2-3-5 1-1 3v-9l2.813.125c3.346.146 3.346.146 6.188-2.125-3.441-2.294-4.723-3-9-3v-5z" fill="#151515"/>
  <path d="M18 123l1 2 4 1 5.938 2.375 3.09 1.273c2.836 1.289 5.428 2.553 7.973 4.352.813 3.188.813 3.188 1 6h-3l-1-5c-3.307-1.064-4.751-1.097-8.043.18l-3.145 1.695-3.168 1.68L20 140l-2 1v-7l2.813-.375c3.327-.44 3.327-.44 6.188-2.625-3.135-1.858-5.375-2.201-9-2v-6z" class="E"/>
  <path d="M29 607v11l5-2c1.372-3.03 1.372-3.03 2-6l2 1c-.287 3.734-.532 6.324-2.687 9.438-3.071 2.075-4.679 2.244-8.312 1.563-2.437-1.937-2.437-1.937-4-5-.121-3.1.125-6.018 1-9 2-1 2-1 5-1z" class="L"/>
  <path d="M15 746l2 4 1.871-.254c5.953-.716 11.195-.607 17.129.254l2-4v12l-1-4H16l-1 4v-12z" class="D"/>
  <path d="M29 460v12c5.123-2.397 5.123-2.397 6.313-6.187L36 463l2 2c-.134 3.677-.225 6.11-2.687 8.938-3.081 1.415-4.96 1.621-8.312 1.063-2.437-1.937-2.437-1.937-4-5-.121-3.1.125-6.018 1-9 2-1 2-1 5-1z" class="M"/>
  <path d="M590 5h12l-4 1v22l4 1h-12l4-1V6l-4-1z" class="D"/>
  <path d="M566 4c.941 8.167.941 15.833 0 24l2 1h-9l3-1-.437-10.375-.119-2.984-.127-2.852-.111-2.634C561.126 6.952 561.126 6.952 560 5c3-1 3-1 6-1z" class="E"/>
  <path d="M24 78v11c4.355-1.161 6.646-2.077 9-6l-1 8c-5.041 2.448-7.845 1.718-13 0-.592-3.013-1.048-5.924-1-9 2.829-4 2.829-4 6-4z" fill="#191919"/>
  <path d="M282.438 17.75L286 18c2.449 3.673 2.315 5.664 2 10-2 2-2 2-5 2.313L280 30c-2.695-4.042-2.232-6.205-2-11 1-1 1-1 4.438-1.25z" fill="#f7f7f7"/>
  <path d="M253 9h2v7h4v2h-4v12h3v-2l2 1c-1.187 1.5-1.187 1.5-3 3-2.687.188-2.687.188-5 0-1.382-2.765-1.095-5.046-1.062-8.125l.027-3.32L251 18l-3-1 1.375-1.187C251.276 13.692 252.062 11.67 253 9z" class="F"/>
  <path d="M20 221h4v10c4.355-1.161 6.646-2.077 9-6l-1 8c-5.041 2.448-7.845 1.718-13 0l-.625-4.312-.352-2.426C18 224 18 224 20 221z" fill="#191919"/>
  <path d="M243 16c2.464 2.464 2.355 3.534 2.625 6.938l.227 2.652L246 31c-1.812.688-1.812.688-4 1-1.75-1.437-1.75-1.437-3-3l2-6-3-1 3-1v-3h-5l-1 4h-4v-4c3.921-2.614 7.445-2.294 12-2z" class="I"/>
  <path d="M749 415c2.063.25 2.063.25 4 1 1.294 2.588 1.168 4.55 1.188 7.438l.043 2.934C754 429 754 429 752 432c-1.937-.375-1.937-.375-4-1-1.363-2.725-1.169-4.961-1.187-8l-.043-3.25C747 417 747 417 749 415z"/>
  <path d="M236 18h5v3l-2 1 2 1c.242 2.906.162 4.667-1.125 7.313C238 32 238 32 234.938 32.375 232 32 232 32 230 30c.231-4.388 1.888-6.083 5-9l1-3z" class="R"/>
  <path d="M32 162h1v8l-1-2H10l-1-4h23v-2z"/>
  <path d="M701.5 14.75C704 15 704 15 706 17c.266 2.094.266 2.094.25 4.5l.016 2.406C706 26 706 26 704 28c-2.339-.226-3.778-.857-5.75-2.125-1.955-2.933-1.561-5.453-1.25-8.875 2-2 2-2 4.5-2.25z" fill="#f7f7f7"/>
  <path d="M673 7h2v6h4v2h-4l.438 5.875.246 3.305c.146 2.768.146 2.768 1.316 4.82h-5c-1-1-1-1-1.098-3.941l.035-3.621.027-3.629L671 15l-3-1 1.938-.687c2.334-1.165 2.334-1.165 2.813-3.937L673 7z" class="C"/>
  <path d="M113.938 17.813C117 18 117 18 119 20c.23 1.875.23 1.875.188 4l-.02 2.125C119 28 119 28 118 30c-2.312.25-2.312.25-5 0-1.812-1.562-1.812-1.562-3-4-.25-3.687-.25-3.687 0-7 1-1 1-1 3.938-1.187z" fill="#f1f1f1"/>
  <path d="M31 566l1 3 4-1v2l7-1v4H32l-1 3-1-2c-2.527-.656-2.527-.656-5-1l-1 3-1-7 3.438-.375L30 568l1-2z" class="D"/>
  
  <g class="J">
    <use href="#H"/>
    <use href="#H" y="-176"/>
  </g>
  
  <path d="M302 16c1.046 3.137 1.07 5.28 1 8.563-.184 3.869-.184 3.869 1 7.438h-9l1-2 .563-6.125.254-3.32L297 18l-2-1c3-1 3-1 7-1z" class="E"/>
  <path d="M728 13c2.351 3.527 2.214 5.029 2.125 9.188l-.055 3.293L730 28l3 1h-10l2-1V15l-4-1c2.534-1.267 4.194-1.281 7-1zm-109 0c2.351 3.527 2.214 5.029 2.125 9.188l-.055 3.293L621 28l3 1h-10l2-1V15l-4-1c2.534-1.267 4.194-1.281 7-1z" fill="#2a2a2a"/>
  <path d="M35 532c.688 2.313.688 2.313 1 5-1 1.813-1 1.813-3 3-3.562.375-3.562.375-7 0-2-3-2-3-1.875-5.062C25 533 25 533 26.688 531.688c3.035-.902 5.261-.381 8.313.313z" class="J"/>
  <path d="M720 13c1.142 3.427.909 5.611.563 9.188l-.309 3.293L720 28l2 1h-9l2-1-1-14c2-1 2-1 6-1zm-109 0c1.142 3.427.909 5.611.563 9.188l-.309 3.293L611 28l2 1h-9l2-1-1-14c2-1 2-1 6-1z" class="E"/>
  <path d="M530 13h5v15l2 1h-9l2-1-.254-3.027-.309-3.91-.316-3.902L529 14l1-1z" class="I"/>
  <path d="M37 546h1v9l-2-2c-2.031-.369-2.031-.369-4.352-.414l-2.578-.117-2.695-.094-2.719-.117L17 552l-1 3-1-1v-5l21-1 1-2z" class="D"/>
  <path d="M28.348 685.77l2.715.043 2.723.02C36 686 36 686 37 687c.125 2.5.125 2.5 0 5-1 1-1 1-3.285 1.098l-2.777-.035-2.785-.027L26 693l-2-5c2-2 2-2 4.348-2.23z" fill="#f5f5f5"/>
  <path d="M28.348 628.77l2.715.043 2.723.02C36 629 36 629 37 630c.125 2.5.125 2.5 0 5-1 1-1 1-3.285 1.098l-2.777-.035-2.785-.027L26 636l-2-5c2-2 2-2 4.348-2.23zM30 177l2 2c-.536 3.536-.536 3.536-2 5l-4.375.25-2.398.078c-2.697-.397-3.534-1.253-5.227-3.328 3.584-4.779 6.4-4.542 12-4z" fill="#eee"/>
  <path d="M18 292l15 6v3l-5.875 2.5-3.305 1.406C21 306 21 306 19 306l-1 2v-8l1 2 8-3-8-4-1 2v-5z" class="Q"/>
  <path d="M194.5 15.75C197 16 197 16 199 18c.385 3.084.507 6.146.656 9.25.076 2.891.076 2.891 2.344 4.75h-10l2-2c.464-2.892.464-2.892.625-6.125l.227-3.32L195 18h-5c2-2 2-2 4.5-2.25z" class="G"/>
  <path d="M20 110c2.82-.293 2.82-.293 6.125-.187l3.32.082L32 110v6l-5.312.188-2.988.105C21 116 21 116 19.145 114.488L18 113l2-3z" fill="#f8f8f8"/>
  <path d="M188 16c1.308 3.923.976 7.402.84 11.504-.104 2.672-.104 2.672 2.16 4.496h-10l2-2c.464-2.892.464-2.892.625-6.125l.227-3.32L184 18l-3-1c2.491-.687 4.379-1 7-1z" fill="#141414"/>
  <path d="M31.188 445.813l2.73.082L36 446l1 5c-1.658 1.658-3.603 1.21-5.875 1.25l-2.68.078C25.59 451.945 24.76 451.215 23 449c2.51-3.177 4.226-3.342 8.188-3.187z" fill="#f0f0f0"/>
  <path d="M34 428l3 1 1 6c-1 1-1 1-3.941 1.098l-3.621-.035-3.629-.027L24 436l-1 2-6-4v-1h6l1-4v4h12v-3h-2v-2z" class="H"/>
  <path d="M269 16v15l3 1h-10l2-2c.464-2.892.464-2.892.625-6.125l.227-3.32L265 18l-3-1c2.491-.687 4.379-1 7-1z" fill="#111"/>
  <path d="M15 643l2 3c3.627.353 7.153.436 10.791.439 5.739.143 5.739.143 8.201 2.33 1.559 3.45 1.694 6.466 2.008 10.23l-2 1-.391-6.055c-.441-2.059-.441-2.059-2.211-3.184-3.233-1.027-6.136-1.064-9.523-1.074l-3.758-.051L17 650l-2 3v-10z" class="C"/>
  <path d="M27.723 482.902l3.34.035 3.348.027L37 483v5c-1 1-1 1-3.285 1.098l-2.777-.035-2.785-.027L26 489l-2-5c1-1 1-1 3.723-1.098z" fill="#fdfdfd"/>
  <path d="M23.602 195.805l3.023.07 3.039.055L32 196v6H21l-2-4c2-2 2-2 4.602-2.195z" class="J"/>
  <path d="M37 596h1v9l-2-1-5.625-.562-3.039-.254L25 603l-1 2c-1.125-5.75-1.125-5.75 0-8h2v2l4.938-.375 2.777-.211L36 598l1-2z" class="E"/>
  <path d="M24 586l2 1v2l4.875-.375 2.742-.211c2.562-.21 2.562-.21 4.383-2.414v9l-1-2H24l-1 3c-.1-3.492.222-6.594 1-10z" class="I"/>
  <path d="M37 476h1v12h-1v-5l-5.875.375-3.305.211c-2.951.147-2.951.147-4.82 2.414l1-7h13v-3z" class="C"/>
  <path d="M23.504 205.902l3.059.035 3.066.027L32 206v6H21l-1-5c1-1 1-1 3.504-1.098z" class="P"/>
  <path d="M688 13v15l3 1h-9l2-1-.437-5.875-.246-3.305c-.146-2.768-.146-2.768-1.316-4.82 2.076-.553 3.844-1 6-1z" fill="#111"/>
  <path d="M37 720h1v9l-2-2c-2.662-.463-2.662-.463-5.625-.625l-3.039-.227L25 726l-1 3-1-7h14v-2z" class="B"/>
  <path d="M18 48l1 4 5.875-.437 3.305-.246C30.947 51.17 30.947 51.17 33 50l-1 5H19v2l-3-1v-2l-4-1v-1h6v-4z" class="C"/>
  <path d="M26 562c1.875-.328 1.875-.328 4-.25l2.125.047C34 562 34 562 36 563v5c-4.1 1.093-6.843.875-11 0l-1-3 2-3z" fill="#f8f8f8"/>
  <path d="M37 576h1v9l-1-2H24l-1 3 1-7 2.59-.148 3.348-.227 3.34-.211L36 578l1-2z" class="L"/>
  <path d="M37 450h1v8l-2-1-5.625-.562-3.039-.254L25 456l-1 2-1-6c3.022-1.007 4.977-1.073 8.125-1H36l1-1z" class="G"/>
  <path d="M32 236h1v9l-1-2H19l-1 3 1-7h13v-3z" class="B"/>
  <path d="M242 658c2.387 2.387 3.942 4.259 5.688 7.063l1.324 2.098C250 669 250 669 250 671h-2v2h-2v-2h-4v-13z" fill="#e8e8e8"/>
  <path d="M627 614c2.387 2.387 3.942 4.259 5.688 7.063l1.324 2.098C635 625 635 625 635 627h-2v2h-2v-2h-4v-13z" fill="#d81920"/>
  <path d="M24 305c3.344.557 6.033 1.352 9 3-1 3-1 3-3.652 4.352l-3.285 1.273-3.277 1.289L20 316l-2 1v-6l1.715-.402 2.223-.535 2.215-.527C26 309.161 26 309.161 27 308l-3-3zm8-246h1v8l-1-2-5.875.438-3.305.246c-2.768.146-2.768.146-4.82 1.316.875-4.875.875-4.875 2-6l6.063-.062 3.348.027L32 61v-2z" class="M"/>
  <path d="M32 210h1v8l-1-2-5.375.438-3.023.246c-2.581.166-2.581.166-4.602 1.316l-1-5c3.149-1.05 5.388-1.101 8.688-1.062l3.012.027L32 212v-2z" class="Q"/>
  <use href="#I" class="J"/>
  <use href="#I" x="385" y="-44" fill="#e31a22"/>
  <path d="M568 13c6.875.875 6.875.875 8 2l.063 6.563-.027 3.629L576 28l3 1h-10l4-1-1-12-4-1v-2z" class="C"/>
  <path d="M32 190h1v9l-1-3-5.437.375-3.059.211L21 197c-1.245 2.491-.777 3.411 0 6l-3-2 1-8h13v-3z" class="I"/>
  <path d="M26.563 173.188l2.379.168C31 174 31 174 32.27 175.879c.854 2.479.875 4.517.73 7.121l-2-1-1-4c-5.531-.439-5.531-.439-10.5 1.5L18 181l1-7c2.967-.989 4.511-1.079 7.563-.812z" class="F"/>
  <path d="M19 246l3 2c2.509.456 2.509.456 5.188.625l2.73.227L32 249l1-3v9l-1-3H20l-1 3c-1.125-6.75-1.125-6.75 0-9z" class="M"/>
  <path d="M29 460l-1 12-5-2 .375-4.437.211-2.496L24 461c2-1 2-1 5-1z" fill="#181818"/>
  <path d="M32 68h1v9l-1-3-5.375.375-3.023.211c-2.757.178-2.757.178-4.602 2.414l-1-6c3.269-1.031 5.86-.964 9.25-.562l2.703.309L32 71v-3z" class="N"/>
  <path d="M29 607l-1 11-4 1c-1.242-2.484-.982-3.822-.687-6.562l.238-2.441L24 608c2-1 2-1 5-1z" fill="#1a1a1a"/>
  <path d="M32 94h1v10l-1-4-5.875.375-3.305.211c-2.951.147-2.951.147-4.82 2.414l1-6h13v-3z" class="B"/>
  <path d="M108 18l3 1-.187 3.25c.197 3.94.667 4.914 3.188 7.75v2c-3.798-.543-5.693-1.951-8-5-.503-4.108-.327-5.509 2-9z" class="H"/>
  <path d="M37 497h1v8l-2-1-5-.125-2.687-.008c-2.339-.018-2.339-.018-4.312 1.133l-1-5 2.809-.148 3.629-.227 3.621-.211L36 499l1-2z" fill="#010101"/>
  <path d="M544 30h10v4c-2.986 1.493-5.709 1.118-9 1l-2-1 1-4z" class="P"/>
  <path d="M18 326l1.563 2.563L22 331c3.665-.129 6.534-.845 10-2-.875 4.875-.875 4.875-2 6-2.929.288-5.151.498-8 0-2.5-2.25-2.5-2.25-4-5v-4zm0-176l1.563 2.563L22 155c3.665-.129 6.534-.845 10-2-.875 4.875-.875 4.875-2 6-2.929.288-5.151.498-8 0-2.5-2.25-2.5-2.25-4-5v-4z" class="H"/>
  <path d="M307.625 15.875L310 16c1.726 3.453 1.349 7.437 1.523 11.25L312 30l3 2h-10l3-2c.585-2.886.585-2.886.688-6.125l.199-3.32L309 18h-6c2-2 2-2 4.625-2.125z" class="G"/>
  <path d="M705 14l5 2 .188 4.313.105 2.426C710 25 710 25 708.613 26.793 707 28 707 28 705 28V14zM36 535h2c-.547 3.375-1.055 5.082-3 8-2.094.363-2.094.363-4.5.313l-2.406-.012C26 543 26 543 24 541l1-3 1 1c3.416.417 3.416.417 7 0 1.843-1.9 1.843-1.9 3-4z" class="C"/>
  <path d="M220.5 626.875C223 627 223 627 224 628v5l-6 1-2-2c.748-4.937.748-4.937 4.5-5.125z" fill="#161616"/>
  <path d="M605.5 582.875C608 583 608 583 609 584v5l-6 1-2-2c.748-4.937.748-4.937 4.5-5.125z" fill="#140203"/>
  <path d="M233 23c2.125.375 2.125.375 4 1l-2 6 4 1c-1 1-1 1-3.937 1.188C232 32 232 32 230 30c.33-3.297.623-4.623 3-7z" class="E"/>
  <path d="M550 14l8 1-3 2-.5 2.5-.5 2.5c-3 2-3 2-7 2v-2l4-1-1-7z" class="K"/>
  <path d="M10 255l2 3c2.773.384 5.343.603 8.125.688l2.285.104L28 259v2H11l-1 3v-9z" class="D"/>
  <path d="M133 17l7 1c-.531 3.821-1.497 6.062-4 9-3-6.625-3-6.625-3-10zm412-2h5l1 6c-1.812.625-1.812.625-4 1l-3-2 1-5z" class="O"/>
  <path d="M605 231l2 1c-.501 4.342-3.105 6.898-6 10l-3 1c.612-3.44 1.921-5.516 4.063-8.25l1.66-2.141L605 231z" fill="#171717"/>
  <path d="M657.25 20.313L659 21l-3 1c-.167 2.416-.167 2.416 0 5l2 2-7-1c-.25-2.312-.25-2.312 0-5 2.137-2.289 3.094-3.126 6.25-2.687z" fill="#111"/>
  <path d="M661 20c.369 4.554.369 4.554-1.5 6.813L658 28l-3-1v-5c3.75-2 3.75-2 6-2z" fill="#e6e6e6"/>
  <path d="M750 433l3 1c.813 1.938.813 1.938 1 4l-2 2c-2.125-.375-2.125-.375-4-1l-1-4 3-2z" class="G"/>
  <path d="M663 13l-2 1-1 2-4-1-1 4h-3l1-5c3.215-1.607 6.436-1.057 10-1z" fill="#242424"/>
  <path d="M24 78v11h-1l-1-6-3 2c-.187-2.375-.187-2.375 0-5 3-2 3-2 5-2z" fill="#070707"/>
  <path d="M27 706l3 1v5l-6-1v-3l3-2z" class="R"/>
  <path d="M236 18h5v3l-6 6 .563-1.875c.674-2.167.674-2.167-.562-4.125l1-3z" fill="#e2e2e2"/>
  <path d="M20 221h4v10h-1l-1-6-3 2v-5l1-1z" class="N"/>
  <path d="M702.188 12.875L706 13l-2 3c-2.375.125-2.375.125-5 0l-4 1v-2c3.089-2.059 3.709-2.239 7.188-2.125z" fill="#262626"/>
  <path d="M26 611h2v7l-4-2c.875-3.875.875-3.875 2-5z" fill="#eee"/>
  <path d="M25 465h3v7h-2c-2-3-2-3-1.625-5.187L25 465zM656 15l5 1v2l-5 2-1-2 1-3z" fill="#e9e9e9"/>
  
  <g fill="#f0f0f0">
    <use href="#J"/>
    <use href="#J" y="-142"/>
  </g>
  
  <path d="M287 16v3h-9v-2c2.957-1.478 5.742-1.06 9-1z" fill="#141414"/>
</svg>
